<svg width="43" height="49" viewBox="0 0 43 49" fill="none" xmlns="http://www.w3.org/2000/svg">
<path d="M37.0813 34.9903L23.2956 47.0001C11.4642 36.7899 8.52155 29.5589 15.8857 21.3291L29.6715 9.31934C41.217 18.6269 44.3948 27.0508 37.0813 34.9903Z" stroke="#BAB9B4" stroke-width="3"/>
<path d="M37.0813 34.9903L23.2956 47.0001C11.4642 36.7899 8.52155 29.5589 15.8857 21.3291L29.6715 9.31934C41.217 18.6269 44.3948 27.0508 37.0813 34.9903Z" stroke="#BAB9B4" stroke-width="3"/>
<path d="M37.0813 34.9903L23.2956 47.0001C11.4642 36.7899 8.52155 29.5589 15.8857 21.3291L29.6715 9.31934C41.217 18.6269 44.3948 27.0508 37.0813 34.9903Z" stroke="#BAB9B4" stroke-width="3"/>
<path d="M37.0813 34.9903L23.2956 47.0001C11.4642 36.7899 8.52155 29.5589 15.8857 21.3291L29.6715 9.31934C41.217 18.6269 44.3948 27.0508 37.0813 34.9903Z" stroke="#BAB9B4" stroke-width="3"/>
<path d="M37.0813 34.9903L23.2956 47.0001C11.4642 36.7899 8.52155 29.5589 15.8857 21.3291L29.6715 9.31934C41.217 18.6269 44.3948 27.0508 37.0813 34.9903Z" stroke="#BAB9B4" stroke-width="3"/>
<path d="M37.0813 34.9903L23.2956 47.0001C11.4642 36.7899 8.52155 29.5589 15.8857 21.3291L29.6715 9.31934C41.217 18.6269 44.3948 27.0508 37.0813 34.9903Z" stroke="#BAB9B4" stroke-width="3"/>
<path d="M37.0813 34.9903L23.2956 47.0001C11.4642 36.7899 8.52155 29.5589 15.8857 21.3291L29.6715 9.31934C41.217 18.6269 44.3948 27.0508 37.0813 34.9903Z" stroke="#BAB9B4" stroke-width="3"/>
<path d="M37.0813 34.9903L23.2956 47.0001C11.4642 36.7899 8.52155 29.5589 15.8857 21.3291L29.6715 9.31934C41.217 18.6269 44.3948 27.0508 37.0813 34.9903Z" stroke="#BAB9B4" stroke-width="3"/>
<path d="M37.0813 34.9903L23.2956 47.0001C11.4642 36.7899 8.52155 29.5589 15.8857 21.3291L29.6715 9.31934C41.217 18.6269 44.3948 27.0508 37.0813 34.9903Z" stroke="#BAB9B4" stroke-width="3"/>
<path d="M37.0813 34.9903L23.2956 47.0001C11.4642 36.7899 8.52155 29.5589 15.8857 21.3291L29.6715 9.31934C41.217 18.6269 44.3948 27.0508 37.0813 34.9903Z" stroke="#BAB9B4" stroke-width="3"/>
<path d="M37.0813 34.9903L23.2956 47.0001C11.4642 36.7899 8.52155 29.5589 15.8857 21.3291L29.6715 9.31934C41.217 18.6269 44.3948 27.0508 37.0813 34.9903Z" stroke="#BAB9B4" stroke-width="3"/>
<path d="M37.0813 34.9903L23.2956 47.0001C11.4642 36.7899 8.52155 29.5589 15.8857 21.3291L29.6715 9.31934C41.217 18.6269 44.3948 27.0508 37.0813 34.9903Z" stroke="#BAB9B4" stroke-width="3"/>
<path d="M37.0813 34.9903L23.2956 47.0001C11.4642 36.7899 8.52155 29.5589 15.8857 21.3291L29.6715 9.31934C41.217 18.6269 44.3948 27.0508 37.0813 34.9903Z" stroke="#BAB9B4" stroke-width="3"/>
<path d="M37.0813 34.9903L23.2956 47.0001C11.4642 36.7899 8.52155 29.5589 15.8857 21.3291L29.6715 9.31934C41.217 18.6269 44.3948 27.0508 37.0813 34.9903Z" stroke="#BAB9B4" stroke-width="3"/>
<path d="M37.0813 34.9903L23.2956 47.0001C11.4642 36.7899 8.52155 29.5589 15.8857 21.3291L29.6715 9.31934C41.217 18.6269 44.3948 27.0508 37.0813 34.9903Z" stroke="#BAB9B4" stroke-width="3"/>
<path d="M37.0813 34.9903L23.2956 47.0001C11.4642 36.7899 8.52155 29.5589 15.8857 21.3291L29.6715 9.31934C41.217 18.6269 44.3948 27.0508 37.0813 34.9903Z" stroke="#BAB9B4" stroke-width="3"/>
<path d="M37.0813 34.9903L23.2956 47.0001C11.4642 36.7899 8.52155 29.5589 15.8857 21.3291L29.6715 9.31934C41.217 18.6269 44.3948 27.0508 37.0813 34.9903Z" stroke="#404040" stroke-width="3"/>
<path d="M32.6965 31.195L18.9107 43.2048C7.07937 32.9946 4.13672 25.7636 11.5009 17.5338L25.2866 5.52405C36.8322 14.8316 40.0099 23.2556 32.6965 31.195Z" stroke="#BAB9B4" stroke-width="3"/>
<path d="M32.6965 31.195L18.9107 43.2048C7.07937 32.9946 4.13672 25.7636 11.5009 17.5338L25.2866 5.52405C36.8322 14.8316 40.0099 23.2556 32.6965 31.195Z" stroke="#BAB9B4" stroke-width="3"/>
<path d="M32.6965 31.195L18.9107 43.2048C7.07937 32.9946 4.13672 25.7636 11.5009 17.5338L25.2866 5.52405C36.8322 14.8316 40.0099 23.2556 32.6965 31.195Z" stroke="#BAB9B4" stroke-width="3"/>
<path d="M32.6965 31.195L18.9107 43.2048C7.07937 32.9946 4.13672 25.7636 11.5009 17.5338L25.2866 5.52405C36.8322 14.8316 40.0099 23.2556 32.6965 31.195Z" stroke="#BAB9B4" stroke-width="3"/>
<path d="M32.6965 31.195L18.9107 43.2048C7.07937 32.9946 4.13672 25.7636 11.5009 17.5338L25.2866 5.52405C36.8322 14.8316 40.0099 23.2556 32.6965 31.195Z" stroke="#BAB9B4" stroke-width="3"/>
<path d="M32.6965 31.195L18.9107 43.2048C7.07937 32.9946 4.13672 25.7636 11.5009 17.5338L25.2866 5.52405C36.8322 14.8316 40.0099 23.2556 32.6965 31.195Z" stroke="#BAB9B4" stroke-width="3"/>
<path d="M32.6965 31.195L18.9107 43.2048C7.07937 32.9946 4.13672 25.7636 11.5009 17.5338L25.2866 5.52405C36.8322 14.8316 40.0099 23.2556 32.6965 31.195Z" stroke="#BAB9B4" stroke-width="3"/>
<path d="M32.6965 31.195L18.9107 43.2048C7.07937 32.9946 4.13672 25.7636 11.5009 17.5338L25.2866 5.52405C36.8322 14.8316 40.0099 23.2556 32.6965 31.195Z" stroke="#BAB9B4" stroke-width="3"/>
<path d="M32.6965 31.195L18.9107 43.2048C7.07937 32.9946 4.13672 25.7636 11.5009 17.5338L25.2866 5.52405C36.8322 14.8316 40.0099 23.2556 32.6965 31.195Z" stroke="#BAB9B4" stroke-width="3"/>
<path d="M32.6965 31.195L18.9107 43.2048C7.07937 32.9946 4.13672 25.7636 11.5009 17.5338L25.2866 5.52405C36.8322 14.8316 40.0099 23.2556 32.6965 31.195Z" stroke="#BAB9B4" stroke-width="3"/>
<path d="M32.6965 31.195L18.9107 43.2048C7.07937 32.9946 4.13672 25.7636 11.5009 17.5338L25.2866 5.52405C36.8322 14.8316 40.0099 23.2556 32.6965 31.195Z" stroke="#BAB9B4" stroke-width="3"/>
<path d="M32.6965 31.195L18.9107 43.2048C7.07937 32.9946 4.13672 25.7636 11.5009 17.5338L25.2866 5.52405C36.8322 14.8316 40.0099 23.2556 32.6965 31.195Z" stroke="#BAB9B4" stroke-width="3"/>
<path d="M32.6965 31.195L18.9107 43.2048C7.07937 32.9946 4.13672 25.7636 11.5009 17.5338L25.2866 5.52405C36.8322 14.8316 40.0099 23.2556 32.6965 31.195Z" stroke="#BAB9B4" stroke-width="3"/>
<path d="M32.6965 31.195L18.9107 43.2048C7.07937 32.9946 4.13672 25.7636 11.5009 17.5338L25.2866 5.52405C36.8322 14.8316 40.0099 23.2556 32.6965 31.195Z" stroke="#BAB9B4" stroke-width="3"/>
<path d="M32.6965 31.195L18.9107 43.2048C7.07937 32.9946 4.13672 25.7636 11.5009 17.5338L25.2866 5.52405C36.8322 14.8316 40.0099 23.2556 32.6965 31.195Z" stroke="#BAB9B4" stroke-width="3"/>
<path d="M32.6965 31.195L18.9107 43.2048C7.07937 32.9946 4.13672 25.7636 11.5009 17.5338L25.2866 5.52405C36.8322 14.8316 40.0099 23.2556 32.6965 31.195Z" stroke="#BAB9B4" stroke-width="3"/>
<path d="M32.6965 31.195L18.9107 43.2048C7.07937 32.9946 4.13672 25.7636 11.5009 17.5338L25.2866 5.52405C36.8322 14.8316 40.0099 23.2556 32.6965 31.195Z" stroke="#64BDC8" stroke-width="3"/>
<path d="M27.6853 27.6709L13.8996 39.6807C2.06819 29.4706 -1.28211 21.6536 6.70452 14.1988L20.2754 2C31.821 11.3076 34.9988 19.7315 27.6853 27.6709Z" stroke="#BAB9B4" stroke-width="3"/>
<path d="M27.6853 27.6709L13.8996 39.6807C2.06819 29.4706 -1.28211 21.6536 6.70452 14.1988L20.2754 2C31.821 11.3076 34.9988 19.7315 27.6853 27.6709Z" stroke="#BAB9B4" stroke-width="3"/>
<path d="M27.6853 27.6709L13.8996 39.6807C2.06819 29.4706 -1.28211 21.6536 6.70452 14.1988L20.2754 2C31.821 11.3076 34.9988 19.7315 27.6853 27.6709Z" stroke="#BAB9B4" stroke-width="3"/>
<path d="M27.6853 27.6709L13.8996 39.6807C2.06819 29.4706 -1.28211 21.6536 6.70452 14.1988L20.2754 2C31.821 11.3076 34.9988 19.7315 27.6853 27.6709Z" stroke="#BAB9B4" stroke-width="3"/>
<path d="M27.6853 27.6709L13.8996 39.6807C2.06819 29.4706 -1.28211 21.6536 6.70452 14.1988L20.2754 2C31.821 11.3076 34.9988 19.7315 27.6853 27.6709Z" stroke="#BAB9B4" stroke-width="3"/>
<path d="M27.6853 27.6709L13.8996 39.6807C2.06819 29.4706 -1.28211 21.6536 6.70452 14.1988L20.2754 2C31.821 11.3076 34.9988 19.7315 27.6853 27.6709Z" stroke="#BAB9B4" stroke-width="3"/>
<path d="M27.6853 27.6709L13.8996 39.6807C2.06819 29.4706 -1.28211 21.6536 6.70452 14.1988L20.2754 2C31.821 11.3076 34.9988 19.7315 27.6853 27.6709Z" stroke="#BAB9B4" stroke-width="3"/>
<path d="M27.6853 27.6709L13.8996 39.6807C2.06819 29.4706 -1.28211 21.6536 6.70452 14.1988L20.2754 2C31.821 11.3076 34.9988 19.7315 27.6853 27.6709Z" stroke="#BAB9B4" stroke-width="3"/>
<path d="M27.6853 27.6709L13.8996 39.6807C2.06819 29.4706 -1.28211 21.6536 6.70452 14.1988L20.2754 2C31.821 11.3076 34.9988 19.7315 27.6853 27.6709Z" stroke="#BAB9B4" stroke-width="3"/>
<path d="M27.6853 27.6709L13.8996 39.6807C2.06819 29.4706 -1.28211 21.6536 6.70452 14.1988L20.2754 2C31.821 11.3076 34.9988 19.7315 27.6853 27.6709Z" stroke="#BAB9B4" stroke-width="3"/>
<path d="M27.6853 27.6709L13.8996 39.6807C2.06819 29.4706 -1.28211 21.6536 6.70452 14.1988L20.2754 2C31.821 11.3076 34.9988 19.7315 27.6853 27.6709Z" stroke="#BAB9B4" stroke-width="3"/>
<path d="M27.6853 27.6709L13.8996 39.6807C2.06819 29.4706 -1.28211 21.6536 6.70452 14.1988L20.2754 2C31.821 11.3076 34.9988 19.7315 27.6853 27.6709Z" stroke="#BAB9B4" stroke-width="3"/>
<path d="M27.6853 27.6709L13.8996 39.6807C2.06819 29.4706 -1.28211 21.6536 6.70452 14.1988L20.2754 2C31.821 11.3076 34.9988 19.7315 27.6853 27.6709Z" stroke="#BAB9B4" stroke-width="3"/>
<path d="M27.6853 27.6709L13.8996 39.6807C2.06819 29.4706 -1.28211 21.6536 6.70452 14.1988L20.2754 2C31.821 11.3076 34.9988 19.7315 27.6853 27.6709Z" stroke="#BAB9B4" stroke-width="3"/>
<path d="M27.6853 27.6709L13.8996 39.6807C2.06819 29.4706 -1.28211 21.6536 6.70452 14.1988L20.2754 2C31.821 11.3076 34.9988 19.7315 27.6853 27.6709Z" stroke="#BAB9B4" stroke-width="3"/>
<path d="M27.6853 27.6709L13.8996 39.6807C2.06819 29.4706 -1.28211 21.6536 6.70452 14.1988L20.2754 2C31.821 11.3076 34.9988 19.7315 27.6853 27.6709Z" stroke="#BAB9B4" stroke-width="3"/>
<path d="M27.6853 27.6709L13.8996 39.6807C2.06819 29.4706 -1.28211 21.6536 6.70452 14.1988L20.2754 2C31.821 11.3076 34.9988 19.7315 27.6853 27.6709Z" stroke="#BAB9B4" stroke-width="3"/>
</svg>
